<?xml version="1.0" encoding="UTF-8" standalone="no"?>
<svg
   viewBox="0 0 495.89999 495.89999"
   version="1.1"
   id="svg4"
   sodipodi:docname="face-smile-beam.svg"
   inkscape:version="1.2.1 (9c6d41e410, 2022-07-14)"
   width="495.89999"
   height="495.89999"
   xmlns:inkscape="http://www.inkscape.org/namespaces/inkscape"
   xmlns:sodipodi="http://sodipodi.sourceforge.net/DTD/sodipodi-0.dtd"
   xmlns="http://www.w3.org/2000/svg"
   xmlns:svg="http://www.w3.org/2000/svg">
  <defs
     id="defs8" />
  <sodipodi:namedview
     id="namedview6"
     pagecolor="#ffffff"
     bordercolor="#000000"
     borderopacity="0.25"
     inkscape:showpageshadow="2"
     inkscape:pageopacity="0.0"
     inkscape:pagecheckerboard="0"
     inkscape:deskcolor="#d1d1d1"
     showgrid="false"
     inkscape:zoom="1.6191406"
     inkscape:cx="132.47768"
     inkscape:cy="310.04101"
     inkscape:window-width="1920"
     inkscape:window-height="1009"
     inkscape:window-x="-8"
     inkscape:window-y="-8"
     inkscape:window-maximized="1"
     inkscape:current-layer="svg4" />
  <!--! Font Awesome Free 6.2.1 by @fontawesome - https://fontawesome.com License - https://fontawesome.com/license/free (Icons: CC BY 4.0, Fonts: SIL OFL 1.1, Code: MIT License) Copyright 2022 Fonticons, Inc. -->
  <path
     d="m 247.95,339.15 c 35.34,0 60.04,-16.625 74.48,-32.205 8.455,-9.215 22.895,-9.88 32.205,-1.33 9.215,8.55 9.785,22.99 1.235,32.205 -20.805,22.705 -56.905,46.93 -107.92,46.93 -51.015,0 -87.115,-24.225 -107.92,-46.93 -8.55,-9.215 -8.835,-23.655 1.235,-32.205 9.31,-8.55 23.75,-7.885 32.205,1.33 14.44,15.58 39.14,32.205 74.48,32.205 z M 211.47,222.11 v 0 l -0.19,-0.285 c -0.19,-0.19 -0.38,-0.475 -0.665,-0.855 -0.665,-0.76 -1.52,-1.805 -2.66,-3.135 -2.375,-2.755 -5.7,-6.27 -9.69,-10.64 -8.36,-6.555 -17.955,-12.445 -26.315,-12.445 -8.36,0 -17.955,5.89 -26.315,12.445 -3.99,4.37 -7.315,7.885 -9.69,10.64 -1.14,1.33 -2.85,2.375 -2.66,3.135 -1.14,0.38 -0.475,0.665 -0.665,0.855 l -0.19,0.285 v 0 c -1.995,2.66 -5.415,3.705 -8.455,2.66 -3.135,-1.045 -5.225,-3.99 -5.225,-7.22 0,-17.005 6.365,-33.82 15.77,-46.36 9.31,-12.35 22.705,-22.04 37.43,-22.04 14.725,0 28.12,9.69 37.43,22.04 9.405,12.54 15.77,29.355 15.77,46.36 0,3.23 -2.09,6.175 -5.225,7.22 -3.04,1.045 -6.46,0 -8.455,-2.66 z m 152,0 -0.19,-0.285 c -0.19,-0.19 -0.38,-0.475 -0.665,-0.855 -0.665,-0.76 -1.52,-1.805 -2.66,-3.135 -2.375,-2.755 -5.7,-6.27 -9.69,-10.64 -8.36,-6.555 -17.955,-12.445 -26.315,-12.445 -8.36,0 -17.955,5.89 -26.315,12.445 -3.99,4.37 -7.315,7.885 -9.69,10.64 -1.14,1.33 -2.85,2.375 -2.66,3.135 -1.14,0.38 -0.475,0.665 -0.665,0.855 l -0.19,0.285 v 0 c -1.995,2.66 -5.415,3.705 -8.455,2.66 -3.135,-1.045 -5.225,-3.99 -5.225,-7.22 0,-17.005 6.365,-33.82 15.77,-46.36 9.31,-12.35 22.705,-22.04 37.43,-22.04 14.725,0 28.12,9.69 37.43,22.04 9.405,12.54 15.77,29.355 15.77,46.36 0,3.23 -2.09,6.175 -5.225,7.22 -3.04,1.045 -6.46,0 -8.455,-2.66 z m 127.68,25.84 c 0,134.33 -108.87,243.2 -243.2,243.2 -134.33,0 -243.2,-108.87 -243.2,-243.2 0,-134.33 108.87,-243.2 243.2,-243.2 134.33,0 243.2,108.87 243.2,243.2 z M 247.95,50.35 c -109.155,0 -197.6,88.445 -197.6,197.6 0,109.155 88.445,197.6 197.6,197.6 109.155,0 197.6,-88.445 197.6,-197.6 0,-109.155 -88.445,-197.6 -197.6,-197.6 z"
     id="path2"
     style="stroke:#ffffff;stroke-width:9.5;stroke-dasharray:none;stroke-opacity:1;fill:#4b549a;fill-opacity:1" />
</svg>
