<?xml version="1.0" encoding="UTF-8" standalone="no"?>
<svg
   viewBox="0 0 394.04596 394.04596"
   version="1.1"
   id="svg6580"
   sodipodi:docname="percent.svg"
   width="394.04596"
   height="394.04596"
   inkscape:version="1.2.1 (9c6d41e410, 2022-07-14)"
   xmlns:inkscape="http://www.inkscape.org/namespaces/inkscape"
   xmlns:sodipodi="http://sodipodi.sourceforge.net/DTD/sodipodi-0.dtd"
   xmlns="http://www.w3.org/2000/svg"
   xmlns:svg="http://www.w3.org/2000/svg">
  <defs
     id="defs6584" />
  <sodipodi:namedview
     id="namedview6582"
     pagecolor="#ffffff"
     bordercolor="#000000"
     borderopacity="0.25"
     inkscape:showpageshadow="2"
     inkscape:pageopacity="0.0"
     inkscape:pagecheckerboard="0"
     inkscape:deskcolor="#d1d1d1"
     showgrid="false"
     inkscape:zoom="1.6191406"
     inkscape:cx="86.156815"
     inkscape:cy="197.63571"
     inkscape:window-width="1920"
     inkscape:window-height="1009"
     inkscape:window-x="-8"
     inkscape:window-y="-8"
     inkscape:window-maximized="1"
     inkscape:current-layer="svg6580" />
  <!--! Font Awesome Free 6.2.1 by @fontawesome - https://fontawesome.com License - https://fontawesome.com/license/free (Icons: CC BY 4.0, Fonts: SIL OFL 1.1, Code: MIT License) Copyright 2022 Fonticons, Inc. -->
  <path
     d="m 379.64595,59.64595 c 12.5,-12.5 12.5,-32.8 0,-45.3 -12.5,-12.5000001 -32.8,-12.5000001 -45.3,0 l -320,320 c -12.5000001,12.5 -12.5000001,32.8 0,45.3 12.5,12.5 32.8,12.5 45.3,0 z m -246.6,9.4 c 0,-35.3 -28.7,-64.0000001 -64,-64.0000001 -35.3,0 -64.0000001,28.7000001 -64.0000001,64.0000001 0,35.3 28.7000001,64 64.0000001,64 35.3,0 64,-28.7 64,-64 z m 256,256 c 0,-35.3 -28.7,-64 -64,-64 -35.3,0 -64,28.7 -64,64 0,35.3 28.7,64 64,64 35.3,0 64,-28.7 64,-64 z"
     id="path6578"
     style="fill:#4b549a;fill-opacity:1;stroke:#ffffff;stroke-width:10;stroke-dasharray:none;stroke-opacity:1" />
</svg>
