<?xml version="1.0" encoding="UTF-8" standalone="no"?>
<svg
   viewBox="0 0 521.9707 521.98291"
   version="1.1"
   id="svg8161"
   sodipodi:docname="rocket.svg"
   width="521.9707"
   height="521.98291"
   inkscape:version="1.2.1 (9c6d41e410, 2022-07-14)"
   xmlns:inkscape="http://www.inkscape.org/namespaces/inkscape"
   xmlns:sodipodi="http://sodipodi.sourceforge.net/DTD/sodipodi-0.dtd"
   xmlns="http://www.w3.org/2000/svg"
   xmlns:svg="http://www.w3.org/2000/svg">
  <defs
     id="defs8165" />
  <sodipodi:namedview
     id="namedview8163"
     pagecolor="#ffffff"
     bordercolor="#000000"
     borderopacity="0.25"
     inkscape:showpageshadow="2"
     inkscape:pageopacity="0.0"
     inkscape:pagecheckerboard="0"
     inkscape:deskcolor="#d1d1d1"
     showgrid="false"
     inkscape:zoom="1.6191406"
     inkscape:cx="150.38842"
     inkscape:cy="261.2497"
     inkscape:window-width="1920"
     inkscape:window-height="1009"
     inkscape:window-x="-8"
     inkscape:window-y="-8"
     inkscape:window-maximized="1"
     inkscape:current-layer="svg8161" />
  <!--! Font Awesome Free 6.2.1 by @fontawesome - https://fontawesome.com License - https://fontawesome.com/license/free (Icons: CC BY 4.0, Fonts: SIL OFL 1.1, Code: MIT License) Copyright 2022 Fonticons, Inc. -->
  <path
     d="m 161.65917,389.82373 -30.9,-30.9 c -8.5,-8.5 -11.5,-20.8 -7.7,-32.2 3,-8.9 7,-20.5 11.8,-33.8 H 29.059166 c -8.6,0 -16.6,-4.6 -20.9000003,-12.1 -4.3,-7.5 -4.2,-16.7 0.2,-24.1 l 52.5000003,-88.5 c 13,-21.9 36.5,-35.3 61.900004,-35.3 h 82.3 c 2.4,-4 4.8,-7.7 7.2,-11.3 81.9,-120.80000258 203.9,-124.8000026 276.7,-111.400003 11.6,2.1 20.6,11.2 22.8,22.8 13.4,72.900003 9.3,194.800003 -111.4,276.700003 -3.5,2.4 -7.3,4.8 -11.3,7.2 v 82.3 c 0,25.4 -13.4,49 -35.3,61.9 l -88.5,52.5 c -7.4,4.4 -16.6,4.5 -24.1,0.2 -7.5,-4.3 -12.1,-12.2 -12.1,-20.9 v -107.2 c -14.1,4.9 -26.4,8.9 -35.7,11.9 -11.2,3.6 -23.4,0.5 -31.8,-7.8 z m 227.4,-216.9 c 22.1,0 40,-17.9 40,-40 0,-22.1 -17.9,-40.000003 -40,-40.000003 -22.1,0 -40,17.900003 -40,40.000003 0,22.1 17.9,40 40,40 z"
     id="path8159"
     style="fill:#4b549a;fill-opacity:1;stroke:#ffffff;stroke-width:10;stroke-dasharray:none;stroke-opacity:1" />
</svg>
