<?xml version="1.0" encoding="UTF-8" standalone="no"?>
<svg
   viewBox="0 0 522 458.03567"
   version="1.1"
   id="svg4144"
   sodipodi:docname="thumbs-up.svg"
   width="522"
   height="458.03568"
   inkscape:version="1.2.1 (9c6d41e410, 2022-07-14)"
   xmlns:inkscape="http://www.inkscape.org/namespaces/inkscape"
   xmlns:sodipodi="http://sodipodi.sourceforge.net/DTD/sodipodi-0.dtd"
   xmlns="http://www.w3.org/2000/svg"
   xmlns:svg="http://www.w3.org/2000/svg">
  <defs
     id="defs4148" />
  <sodipodi:namedview
     id="namedview4146"
     pagecolor="#ffffff"
     bordercolor="#000000"
     borderopacity="0.25"
     inkscape:showpageshadow="2"
     inkscape:pageopacity="0.0"
     inkscape:pagecheckerboard="0"
     inkscape:deskcolor="#d1d1d1"
     showgrid="false"
     inkscape:zoom="1.6191406"
     inkscape:cx="150.38842"
     inkscape:cy="229.1339"
     inkscape:window-width="1920"
     inkscape:window-height="1009"
     inkscape:window-x="-8"
     inkscape:window-y="-8"
     inkscape:window-maximized="1"
     inkscape:current-layer="svg4144" />
  <!--! Font Awesome Free 6.2.1 by @fontawesome - https://fontawesome.com License - https://fontawesome.com/license/free (Icons: CC BY 4.0, Fonts: SIL OFL 1.1, Code: MIT License) Copyright 2022 Fonticons, Inc. -->
  <path
     d="m 318.4,5.9356821 c 26,5.1999999 42.9,30.4999999 37.7,56.4999999 l -2.3,11.4 C 348.5,100.53568 338.7,125.93568 325,149.03568 h 144 c 26.5,0 48,21.5 48,48 0,25.3 -19.5,46 -44.3,47.9 7.7,8.5 12.3,19.8 12.3,32.1 0,23.4 -16.8,42.9 -38.9,47.1 4.4,7.2 6.9,15.8 6.9,24.9 0,21.3 -13.9,39.4 -33.1,45.6 0.7,3.3 1.1,6.8 1.1,10.4 0,26.5 -21.5,48 -48,48 h -73.5 c -19,0 -37.5,-5.6 -53.3,-16.1 l -38.5,-25.7 c -26.7,-17.8 -42.7,-47.8 -42.7,-79.9 v -38.3 -48 -24.9 c 0,-29.2 13.3,-56.7 36,-75 l 7.4,-5.9 c 26.5,-21.2 44.6,-50.999998 51.2,-84.199998 l 2.3,-11.4 c 5.2,-26 30.5,-42.89999989 56.5,-37.6999999 z M 37,165.03568 h 64 c 17.7,0 32,14.3 32,32 v 224 c 0,17.7 -14.3,32 -32,32 H 37 c -17.7,0 -32,-14.3 -32,-32 v -224 c 0,-17.7 14.3,-32 32,-32 z"
     id="path4142"
     style="fill:#4b549a;fill-opacity:1;stroke:#ffffff;stroke-width:10;stroke-dasharray:none;stroke-opacity:1" />
</svg>
