<?xml version="1.0" encoding="UTF-8" standalone="no"?>
<!-- Created with Inkscape (http://www.inkscape.org/) -->

<svg
   width="75.165329mm"
   height="130.0134mm"
   viewBox="0 0 75.165329 130.0134"
   version="1.1"
   id="svg7107"
   xml:space="preserve"
   xmlns:inkscape="http://www.inkscape.org/namespaces/inkscape"
   xmlns:sodipodi="http://sodipodi.sourceforge.net/DTD/sodipodi-0.dtd"
   xmlns="http://www.w3.org/2000/svg"
   xmlns:svg="http://www.w3.org/2000/svg"><sodipodi:namedview
     id="namedview7109"
     pagecolor="#ffffff"
     bordercolor="#000000"
     borderopacity="0.25"
     inkscape:showpageshadow="2"
     inkscape:pageopacity="0.0"
     inkscape:pagecheckerboard="0"
     inkscape:deskcolor="#d1d1d1"
     inkscape:document-units="mm"
     showgrid="false"
     inkscape:zoom="0.7180275"
     inkscape:cx="1477.6593"
     inkscape:cy="1229.7579"
     inkscape:window-width="1920"
     inkscape:window-height="1009"
     inkscape:window-x="-8"
     inkscape:window-y="-8"
     inkscape:window-maximized="1"
     inkscape:current-layer="svg7107" /><defs
     id="defs7104"><clipPath
       clipPathUnits="userSpaceOnUse"
       id="clipPath9215"><path
         d="M 266.559,10.723 C 194.004,55.236 188.484,118.328 250,200 v 0 C 180.913,117.665 186.433,54.573 266.559,10.723"
         id="path9213" /></clipPath><linearGradient
       x1="0"
       y1="0"
       x2="1"
       y2="0"
       gradientUnits="userSpaceOnUse"
       gradientTransform="matrix(16.559593,-189.27699,56.783096,4.9678855,221.59375,197.5)"
       spreadMethod="pad"
       id="linearGradient9225"><stop
         style="stop-opacity:1;stop-color:#c88c14"
         offset="0"
         id="stop9221" /><stop
         style="stop-opacity:1;stop-color:#dca028"
         offset="1"
         id="stop9223" /></linearGradient><clipPath
       clipPathUnits="userSpaceOnUse"
       id="clipPath9235"><path
         d="m 250,10 c -68.4,50.667 -68.4,114 0,190 v 0 C 174,124 174,60.667 250,10"
         id="path9233" /></clipPath><linearGradient
       x1="0"
       y1="0"
       x2="1"
       y2="0"
       gradientUnits="userSpaceOnUse"
       gradientTransform="matrix(2.5e-6,-190.00002,57.000004,8.3e-6,221.5,200)"
       spreadMethod="pad"
       id="linearGradient9245"><stop
         style="stop-opacity:1;stop-color:#c8aa14"
         offset="0"
         id="stop9241" /><stop
         style="stop-opacity:1;stop-color:#dcbe28"
         offset="1"
         id="stop9243" /></linearGradient><clipPath
       clipPathUnits="userSpaceOnUse"
       id="clipPath9255"><path
         d="M 233.44,10.723 C 169.717,67.158 175.236,130.251 250,200 v 0 C 167.665,130.913 162.146,67.82 233.44,10.723"
         id="path9253" /></clipPath><linearGradient
       x1="0"
       y1="0"
       x2="1"
       y2="0"
       gradientUnits="userSpaceOnUse"
       gradientTransform="matrix(-16.559589,-189.27699,56.783096,-4.9678688,221.6875,202.625)"
       spreadMethod="pad"
       id="linearGradient9265"><stop
         style="stop-opacity:1;stop-color:#c8c814"
         offset="0"
         id="stop9261" /><stop
         style="stop-opacity:1;stop-color:#dcdc28"
         offset="1"
         id="stop9263" /></linearGradient><clipPath
       clipPathUnits="userSpaceOnUse"
       id="clipPath9275"><path
         d="M 217.007,12.887 C 158.444,74.661 169.442,137.032 250,200 v 0 C 161.958,138.352 150.96,75.981 217.007,12.887"
         id="path9273" /></clipPath><linearGradient
       x1="0"
       y1="0"
       x2="1"
       y2="0"
       gradientUnits="userSpaceOnUse"
       gradientTransform="matrix(-32.993153,-187.11348,56.134041,-9.8979378,221.875,205)"
       spreadMethod="pad"
       id="linearGradient9285"><stop
         style="stop-opacity:1;stop-color:#aac814"
         offset="0"
         id="stop9281" /><stop
         style="stop-opacity:1;stop-color:#bedc28"
         offset="1"
         id="stop9283" /></linearGradient><clipPath
       clipPathUnits="userSpaceOnUse"
       id="clipPath9295"><path
         d="M 200.824,16.474 C 147.868,83.117 164.26,144.293 250,200 v 0 C 156.919,146.26 140.527,85.085 200.824,16.474"
         id="path9293" /></clipPath><linearGradient
       x1="0"
       y1="0"
       x2="1"
       y2="0"
       gradientUnits="userSpaceOnUse"
       gradientTransform="matrix(-49.175617,-183.52591,55.057777,-14.752678,222.4375,207.25)"
       spreadMethod="pad"
       id="linearGradient9305"><stop
         style="stop-opacity:1;stop-color:#8cc814"
         offset="0"
         id="stop9301" /><stop
         style="stop-opacity:1;stop-color:#96dc28"
         offset="1"
         id="stop9303" /></linearGradient><clipPath
       clipPathUnits="userSpaceOnUse"
       id="clipPath9315"><path
         d="M 185.016,21.458 C 138.07,92.464 159.731,151.978 250,200 v 0 C 152.59,154.577 130.928,95.063 185.016,21.458"
         id="path9313" /></clipPath><linearGradient
       x1="0"
       y1="0"
       x2="1"
       y2="0"
       gradientUnits="userSpaceOnUse"
       gradientTransform="matrix(-64.983826,-178.5416,53.562485,-19.49514,223.25,209.75)"
       spreadMethod="pad"
       id="linearGradient9325"><stop
         style="stop-opacity:1;stop-color:#6ec814"
         offset="0"
         id="stop9321" /><stop
         style="stop-opacity:1;stop-color:#82dc28"
         offset="1"
         id="stop9323" /></linearGradient><clipPath
       clipPathUnits="userSpaceOnUse"
       id="clipPath9335"><path
         d="M 169.702,27.802 C 129.124,102.628 155.89,160.027 250,200 v 0 C 149.001,163.239 122.236,105.84 169.702,27.802"
         id="path9333" /></clipPath><linearGradient
       x1="0"
       y1="0"
       x2="1"
       y2="0"
       gradientUnits="userSpaceOnUse"
       gradientTransform="matrix(-80.29747,-172.19849,51.65955,-24.089233,224.375,212.125)"
       spreadMethod="pad"
       id="linearGradient9345"><stop
         style="stop-opacity:1;stop-color:#50c814"
         offset="0"
         id="stop9341" /><stop
         style="stop-opacity:1;stop-color:#64dc28"
         offset="1"
         id="stop9343" /></linearGradient><clipPath
       clipPathUnits="userSpaceOnUse"
       id="clipPath9355"><path
         d="M 155,35.456 C 121.097,113.534 152.763,168.382 250,200 v 0 C 146.182,172.182 114.516,117.334 155,35.456"
         id="path9353" /></clipPath><linearGradient
       x1="0"
       y1="0"
       x2="1"
       y2="0"
       gradientUnits="userSpaceOnUse"
       gradientTransform="matrix(-95.000008,-164.54483,49.363453,-28.499994,225.375,214.25)"
       spreadMethod="pad"
       id="linearGradient9365"><stop
         style="stop-opacity:1;stop-color:#32c814"
         offset="0"
         id="stop9361" /><stop
         style="stop-opacity:1;stop-color:#46dc28"
         offset="1"
         id="stop9363" /></linearGradient><clipPath
       clipPathUnits="userSpaceOnUse"
       id="clipPath9375"><path
         d="M 141.02,44.361 C 114.052,125.097 150.378,176.978 250,200 v 0 C 144.153,181.336 107.826,129.457 141.02,44.361"
         id="path9373" /></clipPath><linearGradient
       x1="0"
       y1="0"
       x2="1"
       y2="0"
       gradientUnits="userSpaceOnUse"
       gradientTransform="matrix(-108.97952,-155.6389,46.691673,-32.693848,226.625,216.25)"
       spreadMethod="pad"
       id="linearGradient9385"><stop
         style="stop-opacity:1;stop-color:#14c814"
         offset="0"
         id="stop9381" /><stop
         style="stop-opacity:1;stop-color:#28dc28"
         offset="1"
         id="stop9383" /></linearGradient><clipPath
       clipPathUnits="userSpaceOnUse"
       id="clipPath9395"><path
         d="M 127.87,54.451 C 108.041,137.231 148.75,185.747 250,200 v 0 C 142.929,190.633 102.218,142.116 127.87,54.451"
         id="path9393" /></clipPath><linearGradient
       x1="0"
       y1="0"
       x2="1"
       y2="0"
       gradientUnits="userSpaceOnUse"
       gradientTransform="matrix(-122.12965,-145.54845,43.664539,-36.638885,228.25,218.5625)"
       spreadMethod="pad"
       id="linearGradient9405"><stop
         style="stop-opacity:1;stop-color:#14c832"
         offset="0"
         id="stop9401" /><stop
         style="stop-opacity:1;stop-color:#28dc46"
         offset="1"
         id="stop9403" /></linearGradient><clipPath
       clipPathUnits="userSpaceOnUse"
       id="clipPath9415"><path
         d="M 115.65,65.65 C 103.11,149.843 147.893,194.626 250,200 v 0 C 142.52,200 97.736,155.217 115.65,65.65"
         id="path9413" /></clipPath><linearGradient
       x1="0"
       y1="0"
       x2="1"
       y2="0"
       gradientUnits="userSpaceOnUse"
       gradientTransform="matrix(-134.35028,-134.35028,40.305096,-40.30508,230.125,220.25)"
       spreadMethod="pad"
       id="linearGradient9425"><stop
         style="stop-opacity:1;stop-color:#14c850"
         offset="0"
         id="stop9421" /><stop
         style="stop-opacity:1;stop-color:#28dc64"
         offset="1"
         id="stop9423" /></linearGradient><clipPath
       clipPathUnits="userSpaceOnUse"
       id="clipPath9435"><path
         d="M 104.451,77.87 C 99.298,162.836 147.814,203.546 250,200 v 0 c -10.012,0.876 -19.518,1.314 -28.506,1.314 v 0 C 134.361,201.316 95.351,160.168 104.451,77.87"
         id="path9433" /></clipPath><linearGradient
       x1="0"
       y1="0"
       x2="1"
       y2="0"
       gradientUnits="userSpaceOnUse"
       gradientTransform="matrix(-145.54845,-122.12965,36.638905,-43.664532,231.875,221.875)"
       spreadMethod="pad"
       id="linearGradient9445"><stop
         style="stop-opacity:1;stop-color:#14c86e"
         offset="0"
         id="stop9441" /><stop
         style="stop-opacity:1;stop-color:#28dc82"
         offset="1"
         id="stop9443" /></linearGradient><clipPath
       clipPathUnits="userSpaceOnUse"
       id="clipPath9455"><path
         d="M 94.361,91.021 C 96.632,176.111 148.512,212.439 250,200 v 0 c -17.96,3.167 -34.372,4.75 -49.225,4.751 v 0 C 128.094,204.753 92.627,166.843 94.361,91.021"
         id="path9453" /></clipPath><linearGradient
       x1="0"
       y1="0"
       x2="1"
       y2="0"
       gradientUnits="userSpaceOnUse"
       gradientTransform="matrix(-155.63889,-108.97952,32.693863,-46.691662,233.75,223.4375)"
       spreadMethod="pad"
       id="linearGradient9465"><stop
         style="stop-opacity:1;stop-color:#14c88c"
         offset="0"
         id="stop9461" /><stop
         style="stop-opacity:1;stop-color:#28dca0"
         offset="1"
         id="stop9463" /></linearGradient><clipPath
       clipPathUnits="userSpaceOnUse"
       id="clipPath9475"><path
         d="m 85.455,105 c 9.679,84.57 64.527,116.236 164.545,95 v 0 c -24.275,6.505 -45.873,9.757 -64.794,9.757 v 0 C 123.209,209.757 89.959,174.838 85.455,105"
         id="path9473" /></clipPath><linearGradient
       x1="0"
       y1="0"
       x2="1"
       y2="0"
       gradientUnits="userSpaceOnUse"
       gradientTransform="matrix(-164.54483,-95,28.500008,-49.363445,235.875,224.71875)"
       spreadMethod="pad"
       id="linearGradient9485"><stop
         style="stop-opacity:1;stop-color:#14c8aa"
         offset="0"
         id="stop9481" /><stop
         style="stop-opacity:1;stop-color:#28dcbe"
         offset="1"
         id="stop9483" /></linearGradient><clipPath
       clipPathUnits="userSpaceOnUse"
       id="clipPath9495"><path
         d="M 77.801,119.702 C 94.814,203.107 152.213,229.872 250,200 v 0 c -29.219,10.635 -54.796,15.953 -76.717,15.954 v 0 c -53.85,0.002 -85.674,-32.082 -95.482,-96.252"
         id="path9493" /></clipPath><linearGradient
       x1="0"
       y1="0"
       x2="1"
       y2="0"
       gradientUnits="userSpaceOnUse"
       gradientTransform="matrix(-172.19847,-80.29747,24.089249,-51.659538,237.875,225.78125)"
       spreadMethod="pad"
       id="linearGradient9505"><stop
         style="stop-opacity:1;stop-color:#14c8c8"
         offset="0"
         id="stop9501" /><stop
         style="stop-opacity:1;stop-color:#28dcdc"
         offset="1"
         id="stop9503" /></linearGradient><clipPath
       clipPathUnits="userSpaceOnUse"
       id="clipPath9515"><path
         d="M 71.458,135.016 C 95.675,216.62 155.189,238.281 250,200 v 0 c -32.973,15.376 -61.616,23.065 -85.905,23.067 v 0 C 116.63,223.071 85.758,193.721 71.458,135.016"
         id="path9513" /></clipPath><linearGradient
       x1="0"
       y1="0"
       x2="1"
       y2="0"
       gradientUnits="userSpaceOnUse"
       gradientTransform="matrix(-178.5416,-64.983826,19.495155,-53.562473,240.25,226.70312)"
       spreadMethod="pad"
       id="linearGradient9525"><stop
         style="stop-opacity:1;stop-color:#14aac8"
         offset="0"
         id="stop9521" /><stop
         style="stop-opacity:1;stop-color:#28bedc"
         offset="1"
         id="stop9523" /></linearGradient><clipPath
       clipPathUnits="userSpaceOnUse"
       id="clipPath9535"><path
         d="M 66.474,150.824 C 97.711,230.007 158.886,246.399 250,200 v 0 c -35.661,20.589 -66.642,30.884 -92.937,30.885 v 0 C 114.724,230.887 84.53,204.2 66.474,150.824"
         id="path9533" /></clipPath><linearGradient
       x1="0"
       y1="0"
       x2="1"
       y2="0"
       gradientUnits="userSpaceOnUse"
       gradientTransform="matrix(-183.52591,-49.175625,14.752693,-55.05777,242.625,227.54297)"
       spreadMethod="pad"
       id="linearGradient9545"><stop
         style="stop-opacity:1;stop-color:#148cc8"
         offset="0"
         id="stop9541" /><stop
         style="stop-opacity:1;stop-color:#28a0dc"
         offset="1"
         id="stop9543" /></linearGradient><clipPath
       clipPathUnits="userSpaceOnUse"
       id="clipPath9555"><path
         d="M 62.887,167.007 C 100.906,243.166 163.277,254.165 250,200 v 0 c -37.352,26.154 -70.094,39.233 -98.206,39.236 v 0 C 113.645,239.24 84.016,215.164 62.887,167.007"
         id="path9553" /></clipPath><linearGradient
       x1="0"
       y1="0"
       x2="1"
       y2="0"
       gradientUnits="userSpaceOnUse"
       gradientTransform="matrix(-187.11348,-32.99316,9.8979549,-56.134041,245.125,228.0625)"
       spreadMethod="pad"
       id="linearGradient9565"><stop
         style="stop-opacity:1;stop-color:#146ec8"
         offset="0"
         id="stop9561" /><stop
         style="stop-opacity:1;stop-color:#2882dc"
         offset="1"
         id="stop9563" /></linearGradient><clipPath
       clipPathUnits="userSpaceOnUse"
       id="clipPath9575"><path
         d="M 60.723,183.441 C 105.235,255.996 168.328,261.516 250,200 v 0 c -38.117,31.984 -72.121,47.978 -101.99,47.982 v 0 c -34.649,0.004 -63.738,-21.509 -87.287,-64.541"
         id="path9573" /></clipPath><linearGradient
       x1="0"
       y1="0"
       x2="1"
       y2="0"
       gradientUnits="userSpaceOnUse"
       gradientTransform="matrix(-189.27699,-16.559593,4.9678855,-56.783096,247.625,228.40625)"
       spreadMethod="pad"
       id="linearGradient9585"><stop
         style="stop-opacity:1;stop-color:#1450c8"
         offset="0"
         id="stop9581" /><stop
         style="stop-opacity:1;stop-color:#2864dc"
         offset="1"
         id="stop9583" /></linearGradient><clipPath
       clipPathUnits="userSpaceOnUse"
       id="clipPath9595"><path
         d="m 60,200 c 50.667,68.401 114,68.401 190,0 v 0 c -38,38 -72.833,57 -104.5,57 v 0 C 113.833,257 85.333,238 60,200"
         id="path9593" /></clipPath><linearGradient
       x1="0"
       y1="0"
       x2="1"
       y2="0"
       gradientUnits="userSpaceOnUse"
       gradientTransform="matrix(-190.00002,-2.5e-6,8.3e-6,-57.000004,250.25,228.4375)"
       spreadMethod="pad"
       id="linearGradient9605"><stop
         style="stop-opacity:1;stop-color:#1432c8"
         offset="0"
         id="stop9601" /><stop
         style="stop-opacity:1;stop-color:#2846dc"
         offset="1"
         id="stop9603" /></linearGradient><clipPath
       clipPathUnits="userSpaceOnUse"
       id="clipPath9615"><path
         d="M 60.723,216.56 C 117.158,280.283 180.25,274.764 250,200 v 0 c -37.023,44.123 -72.332,66.185 -105.911,66.189 v 0 C 115.006,266.191 87.223,249.648 60.723,216.56"
         id="path9613" /></clipPath><linearGradient
       x1="0"
       y1="0"
       x2="1"
       y2="0"
       gradientUnits="userSpaceOnUse"
       gradientTransform="matrix(-189.27699,16.559589,-4.9678688,-56.783096,252.25,228.375)"
       spreadMethod="pad"
       id="linearGradient9625"><stop
         style="stop-opacity:1;stop-color:#1414c8"
         offset="0"
         id="stop9621" /><stop
         style="stop-opacity:1;stop-color:#2828dc"
         offset="1"
         id="stop9623" /></linearGradient><clipPath
       clipPathUnits="userSpaceOnUse"
       id="clipPath9635"><path
         d="M 62.887,232.993 C 124.661,291.556 187.033,280.559 250,200 v 0 c -35.223,50.303 -70.685,75.456 -106.38,75.458 v 0 c -26.78,10e-4 -53.688,-14.154 -80.733,-42.465"
         id="path9633" /></clipPath><linearGradient
       x1="0"
       y1="0"
       x2="1"
       y2="0"
       gradientUnits="userSpaceOnUse"
       gradientTransform="matrix(-187.11348,32.993153,-9.8979378,-56.134041,255,228.125)"
       spreadMethod="pad"
       id="linearGradient9645"><stop
         style="stop-opacity:1;stop-color:#3214c8"
         offset="0"
         id="stop9641" /><stop
         style="stop-opacity:1;stop-color:#4628dc"
         offset="1"
         id="stop9643" /></linearGradient><clipPath
       clipPathUnits="userSpaceOnUse"
       id="clipPath9655"><path
         d="M 66.474,249.176 C 133.118,302.132 194.293,285.739 250,200 v 0 c -32.61,56.483 -67.97,84.727 -106.055,84.732 v 0 c -24.678,0.004 -50.494,-11.848 -77.471,-35.556"
         id="path9653" /></clipPath><linearGradient
       x1="0"
       y1="0"
       x2="1"
       y2="0"
       gradientUnits="userSpaceOnUse"
       gradientTransform="matrix(-183.52591,49.175617,-14.752678,-55.057777,257.375,227.625)"
       spreadMethod="pad"
       id="linearGradient9665"><stop
         style="stop-opacity:1;stop-color:#5014c8"
         offset="0"
         id="stop9661" /><stop
         style="stop-opacity:1;stop-color:#6428dc"
         offset="1"
         id="stop9663" /></linearGradient><clipPath
       clipPathUnits="userSpaceOnUse"
       id="clipPath9675"><path
         d="M 71.458,264.983 C 142.464,311.93 201.977,290.269 250,200 v 0 c -29.205,62.629 -64.241,93.946 -105.095,93.949 v 0 c -22.688,0.002 -47.166,-9.653 -73.447,-28.966"
         id="path9673" /></clipPath><linearGradient
       x1="0"
       y1="0"
       x2="1"
       y2="0"
       gradientUnits="userSpaceOnUse"
       gradientTransform="matrix(-178.5416,64.983826,-19.49514,-53.562485,259.875,226.75)"
       spreadMethod="pad"
       id="linearGradient9685"><stop
         style="stop-opacity:1;stop-color:#6e14c8"
         offset="0"
         id="stop9681" /><stop
         style="stop-opacity:1;stop-color:#8228dc"
         offset="1"
         id="stop9683" /></linearGradient><clipPath
       clipPathUnits="userSpaceOnUse"
       id="clipPath9695"><path
         d="M 77.801,280.298 C 152.628,320.876 210.028,294.11 250,200 v 0 c -25.006,68.702 -59.572,103.057 -103.678,103.061 v 0 c -20.733,0.003 -43.567,-7.585 -68.521,-22.763"
         id="path9693" /></clipPath><linearGradient
       x1="0"
       y1="0"
       x2="1"
       y2="0"
       gradientUnits="userSpaceOnUse"
       gradientTransform="matrix(-172.19849,80.29747,-24.089233,-51.65955,262.25,225.625)"
       spreadMethod="pad"
       id="linearGradient9705"><stop
         style="stop-opacity:1;stop-color:#8c14c8"
         offset="0"
         id="stop9701" /><stop
         style="stop-opacity:1;stop-color:#a028dc"
         offset="1"
         id="stop9703" /></linearGradient><clipPath
       clipPathUnits="userSpaceOnUse"
       id="clipPath9715"><path
         d="m 85.455,295 c 78.079,33.902 132.926,2.237 164.545,-95 v 0 c -20.013,74.689 -54.02,112.034 -102.013,112.037 v 0 C 129.269,312.038 108.429,306.359 85.455,295"
         id="path9713" /></clipPath><linearGradient
       x1="0"
       y1="0"
       x2="1"
       y2="0"
       gradientUnits="userSpaceOnUse"
       gradientTransform="matrix(-164.54483,95.000008,-28.499994,-49.363453,264.125,224.625)"
       spreadMethod="pad"
       id="linearGradient9725"><stop
         style="stop-opacity:1;stop-color:#aa14c8"
         offset="0"
         id="stop9721" /><stop
         style="stop-opacity:1;stop-color:#be28dc"
         offset="1"
         id="stop9723" /></linearGradient><clipPath
       clipPathUnits="userSpaceOnUse"
       id="clipPath9735"><path
         d="M 94.361,308.98 C 175.098,335.948 226.977,299.622 250,200 v 0 c -14.208,80.575 -47.67,120.863 -100.372,120.867 v 0 c -16.531,10e-4 -34.949,-3.961 -55.267,-11.887"
         id="path9733" /></clipPath><linearGradient
       x1="0"
       y1="0"
       x2="1"
       y2="0"
       gradientUnits="userSpaceOnUse"
       gradientTransform="matrix(-155.6389,108.97952,-32.693848,-46.691673,266.25,223.375)"
       spreadMethod="pad"
       id="linearGradient9745"><stop
         style="stop-opacity:1;stop-color:#c814c8"
         offset="0"
         id="stop9741" /><stop
         style="stop-opacity:1;stop-color:#dc28dc"
         offset="1"
         id="stop9743" /></linearGradient><clipPath
       clipPathUnits="userSpaceOnUse"
       id="clipPath9755"><path
         d="M 104.451,322.13 C 187.231,341.959 235.747,301.249 250,200 v 0 c -7.557,86.374 -40.597,129.564 -99.107,129.566 v 0 c -14.02,0.001 -29.496,-2.478 -46.442,-7.436"
         id="path9753" /></clipPath><linearGradient
       x1="0"
       y1="0"
       x2="1"
       y2="0"
       gradientUnits="userSpaceOnUse"
       gradientTransform="matrix(-145.54845,122.12965,-36.638885,-43.664539,268.4375,221.75)"
       spreadMethod="pad"
       id="linearGradient9765"><stop
         style="stop-opacity:1;stop-color:#c814aa"
         offset="0"
         id="stop9761" /><stop
         style="stop-opacity:1;stop-color:#dc28be"
         offset="1"
         id="stop9763" /></linearGradient><clipPath
       clipPathUnits="userSpaceOnUse"
       id="clipPath9775"><path
         d="M 115.65,334.351 C 199.843,346.89 244.626,302.107 250,200 v 0 c 0,92.123 -32.906,138.186 -98.707,138.189 v 0 c -10.969,10e-4 -22.845,-1.279 -35.643,-3.838"
         id="path9773" /></clipPath><linearGradient
       x1="0"
       y1="0"
       x2="1"
       y2="0"
       gradientUnits="userSpaceOnUse"
       gradientTransform="matrix(-134.35028,134.35028,-40.30508,-40.305096,270.125,220.125)"
       spreadMethod="pad"
       id="linearGradient9785"><stop
         style="stop-opacity:1;stop-color:#c8148c"
         offset="0"
         id="stop9781" /><stop
         style="stop-opacity:1;stop-color:#dc28a0"
         offset="1"
         id="stop9783" /></linearGradient><clipPath
       clipPathUnits="userSpaceOnUse"
       id="clipPath9795"><path
         d="M 127.87,345.549 C 212.836,350.702 253.545,302.187 250,200 v 0 c 8.564,97.889 -24.736,146.836 -99.886,146.84 v 0 c -7.049,0 -14.458,-0.43 -22.244,-1.291"
         id="path9793" /></clipPath><linearGradient
       x1="0"
       y1="0"
       x2="1"
       y2="0"
       gradientUnits="userSpaceOnUse"
       gradientTransform="matrix(-122.12965,145.54845,-43.664532,-36.638905,271.875,218.125)"
       spreadMethod="pad"
       id="linearGradient9805"><stop
         style="stop-opacity:1;stop-color:#c8146e"
         offset="0"
         id="stop9801" /><stop
         style="stop-opacity:1;stop-color:#dc2882"
         offset="1"
         id="stop9803" /></linearGradient><clipPath
       clipPathUnits="userSpaceOnUse"
       id="clipPath9815"><path
         d="M 141.02,355.639 C 226.111,353.368 262.438,301.488 250,200 v 0 c 18.302,103.8 -16.278,155.699 -103.742,155.699 v 0 c -1.726,0 -3.471,-0.02 -5.238,-0.06"
         id="path9813" /></clipPath><linearGradient
       x1="0"
       y1="0"
       x2="1"
       y2="0"
       gradientUnits="userSpaceOnUse"
       gradientTransform="matrix(-108.97952,155.63889,-46.691662,-32.693863,273.4375,216.125)"
       spreadMethod="pad"
       id="linearGradient9825"><stop
         style="stop-opacity:1;stop-color:#c81450"
         offset="0"
         id="stop9821" /><stop
         style="stop-opacity:1;stop-color:#dc2864"
         offset="1"
         id="stop9823" /></linearGradient><clipPath
       clipPathUnits="userSpaceOnUse"
       id="clipPath9835"><path
         d="m 250,200 c 27.818,103.818 -3.848,158.666 -95,164.545 v 0 C 239.569,354.866 271.237,300.018 250,200"
         id="path9833" /></clipPath><linearGradient
       x1="0"
       y1="0"
       x2="1"
       y2="0"
       gradientUnits="userSpaceOnUse"
       gradientTransform="matrix(-95,164.54483,-49.363445,-28.500008,274.6875,214.25)"
       spreadMethod="pad"
       id="linearGradient9845"><stop
         style="stop-opacity:1;stop-color:#c81432"
         offset="0"
         id="stop9841" /><stop
         style="stop-opacity:1;stop-color:#dc2846"
         offset="1"
         id="stop9843" /></linearGradient><clipPath
       clipPathUnits="userSpaceOnUse"
       id="clipPath9855"><path
         d="m 250,200 c 36.76,100.998 9.995,158.397 -80.298,172.199 v 0 C 253.106,355.186 279.873,297.786 250,200"
         id="path9853" /></clipPath><linearGradient
       x1="0"
       y1="0"
       x2="1"
       y2="0"
       gradientUnits="userSpaceOnUse"
       gradientTransform="matrix(-80.29747,172.19847,-51.659538,-24.089249,275.84375,211.875)"
       spreadMethod="pad"
       id="linearGradient9865"><stop
         style="stop-opacity:1;stop-color:#c81414"
         offset="0"
         id="stop9861" /><stop
         style="stop-opacity:1;stop-color:#dc2828"
         offset="1"
         id="stop9863" /></linearGradient><clipPath
       clipPathUnits="userSpaceOnUse"
       id="clipPath9875"><path
         d="m 250,200 c 45.423,97.41 23.762,156.924 -64.984,178.542 v 0 C 266.62,354.325 288.281,294.81 250,200"
         id="path9873" /></clipPath><linearGradient
       x1="0"
       y1="0"
       x2="1"
       y2="0"
       gradientUnits="userSpaceOnUse"
       gradientTransform="matrix(-64.983826,178.5416,-53.562473,-19.495155,276.85937,209.375)"
       spreadMethod="pad"
       id="linearGradient9885"><stop
         style="stop-opacity:1;stop-color:#c83214"
         offset="0"
         id="stop9881" /><stop
         style="stop-opacity:1;stop-color:#dc4628"
         offset="1"
         id="stop9883" /></linearGradient></defs><g
     id="g9209"
     transform="matrix(-0.35277776,0,0,-0.35277778,96.332002,133.54121)"
     inkscape:export-filename="g9209.svg"
     inkscape:export-xdpi="96"
     inkscape:export-ydpi="96"><g
       id="g9211"
       clip-path="url(#clipPath9215)"><g
         id="g9217"><g
           id="g9219"><path
             d="M 266.559,10.723 C 194.004,55.236 188.484,118.328 250,200 v 0 C 180.913,117.665 186.433,54.573 266.559,10.723"
             style="fill:url(#linearGradient9225);stroke:none"
             id="path9227" /></g></g></g></g><g
     id="g9229"
     transform="matrix(-0.35277776,0,0,-0.35277778,96.332002,133.54121)"><g
       id="g9231"
       clip-path="url(#clipPath9235)"><g
         id="g9237"><g
           id="g9239"><path
             d="m 250,10 c -68.4,50.667 -68.4,114 0,190 v 0 C 174,124 174,60.667 250,10"
             style="fill:url(#linearGradient9245);stroke:none"
             id="path9247" /></g></g></g></g><g
     id="g9249"
     transform="matrix(-0.35277776,0,0,-0.35277778,96.332002,133.54121)"><g
       id="g9251"
       clip-path="url(#clipPath9255)"><g
         id="g9257"><g
           id="g9259"><path
             d="M 233.44,10.723 C 169.717,67.158 175.236,130.251 250,200 v 0 C 167.665,130.913 162.146,67.82 233.44,10.723"
             style="fill:url(#linearGradient9265);stroke:none"
             id="path9267" /></g></g></g></g><g
     id="g9269"
     transform="matrix(-0.35277776,0,0,-0.35277778,96.332002,133.54121)"><g
       id="g9271"
       clip-path="url(#clipPath9275)"><g
         id="g9277"><g
           id="g9279"><path
             d="M 217.007,12.887 C 158.444,74.661 169.442,137.032 250,200 v 0 C 161.958,138.352 150.96,75.981 217.007,12.887"
             style="fill:url(#linearGradient9285);stroke:none"
             id="path9287" /></g></g></g></g><g
     id="g9289"
     transform="matrix(-0.35277776,0,0,-0.35277778,96.332002,133.54121)"><g
       id="g9291"
       clip-path="url(#clipPath9295)"><g
         id="g9297"><g
           id="g9299"><path
             d="M 200.824,16.474 C 147.868,83.117 164.26,144.293 250,200 v 0 C 156.919,146.26 140.527,85.085 200.824,16.474"
             style="fill:url(#linearGradient9305);stroke:none"
             id="path9307" /></g></g></g></g><g
     id="g9309"
     transform="matrix(-0.35277776,0,0,-0.35277778,96.332002,133.54121)"><g
       id="g9311"
       clip-path="url(#clipPath9315)"><g
         id="g9317"><g
           id="g9319"><path
             d="M 185.016,21.458 C 138.07,92.464 159.731,151.978 250,200 v 0 C 152.59,154.577 130.928,95.063 185.016,21.458"
             style="fill:url(#linearGradient9325);stroke:none"
             id="path9327" /></g></g></g></g><g
     id="g9329"
     transform="matrix(-0.35277776,0,0,-0.35277778,96.332002,133.54121)"><g
       id="g9331"
       clip-path="url(#clipPath9335)"><g
         id="g9337"><g
           id="g9339"><path
             d="M 169.702,27.802 C 129.124,102.628 155.89,160.027 250,200 v 0 C 149.001,163.239 122.236,105.84 169.702,27.802"
             style="fill:url(#linearGradient9345);stroke:none"
             id="path9347" /></g></g></g></g><g
     id="g9349"
     transform="matrix(-0.35277776,0,0,-0.35277778,96.332002,133.54121)"><g
       id="g9351"
       clip-path="url(#clipPath9355)"><g
         id="g9357"><g
           id="g9359"><path
             d="M 155,35.456 C 121.097,113.534 152.763,168.382 250,200 v 0 C 146.182,172.182 114.516,117.334 155,35.456"
             style="fill:url(#linearGradient9365);stroke:none"
             id="path9367" /></g></g></g></g><g
     id="g9369"
     transform="matrix(-0.35277776,0,0,-0.35277778,96.332002,133.54121)"><g
       id="g9371"
       clip-path="url(#clipPath9375)"><g
         id="g9377"><g
           id="g9379"><path
             d="M 141.02,44.361 C 114.052,125.097 150.378,176.978 250,200 v 0 C 144.153,181.336 107.826,129.457 141.02,44.361"
             style="fill:url(#linearGradient9385);stroke:none"
             id="path9387" /></g></g></g></g><g
     id="g9389"
     transform="matrix(-0.35277776,0,0,-0.35277778,96.332002,133.54121)"><g
       id="g9391"
       clip-path="url(#clipPath9395)"><g
         id="g9397"><g
           id="g9399"><path
             d="M 127.87,54.451 C 108.041,137.231 148.75,185.747 250,200 v 0 C 142.929,190.633 102.218,142.116 127.87,54.451"
             style="fill:url(#linearGradient9405);stroke:none"
             id="path9407" /></g></g></g></g><g
     id="g9409"
     transform="matrix(-0.35277776,0,0,-0.35277778,96.332002,133.54121)"><g
       id="g9411"
       clip-path="url(#clipPath9415)"><g
         id="g9417"><g
           id="g9419"><path
             d="M 115.65,65.65 C 103.11,149.843 147.893,194.626 250,200 v 0 C 142.52,200 97.736,155.217 115.65,65.65"
             style="fill:url(#linearGradient9425);stroke:none"
             id="path9427" /></g></g></g></g><g
     id="g9429"
     transform="matrix(-0.35277776,0,0,-0.35277778,96.332002,133.54121)"><g
       id="g9431"
       clip-path="url(#clipPath9435)"><g
         id="g9437"><g
           id="g9439"><path
             d="M 104.451,77.87 C 99.298,162.836 147.814,203.546 250,200 v 0 c -10.012,0.876 -19.518,1.314 -28.506,1.314 v 0 C 134.361,201.316 95.351,160.168 104.451,77.87"
             style="fill:url(#linearGradient9445);stroke:none"
             id="path9447" /></g></g></g></g><g
     id="g9449"
     transform="matrix(-0.35277776,0,0,-0.35277778,96.332002,133.54121)"><g
       id="g9451"
       clip-path="url(#clipPath9455)"><g
         id="g9457"><g
           id="g9459"><path
             d="M 94.361,91.021 C 96.632,176.111 148.512,212.439 250,200 v 0 c -17.96,3.167 -34.372,4.75 -49.225,4.751 v 0 C 128.094,204.753 92.627,166.843 94.361,91.021"
             style="fill:url(#linearGradient9465);stroke:none"
             id="path9467" /></g></g></g></g><g
     id="g9469"
     transform="matrix(-0.35277776,0,0,-0.35277778,96.332002,133.54121)"><g
       id="g9471"
       clip-path="url(#clipPath9475)"><g
         id="g9477"><g
           id="g9479"><path
             d="m 85.455,105 c 9.679,84.57 64.527,116.236 164.545,95 v 0 c -24.275,6.505 -45.873,9.757 -64.794,9.757 v 0 C 123.209,209.757 89.959,174.838 85.455,105"
             style="fill:url(#linearGradient9485);stroke:none"
             id="path9487" /></g></g></g></g><g
     id="g9489"
     transform="matrix(-0.35277776,0,0,-0.35277778,96.332002,133.54121)"><g
       id="g9491"
       clip-path="url(#clipPath9495)"><g
         id="g9497"><g
           id="g9499"><path
             d="M 77.801,119.702 C 94.814,203.107 152.213,229.872 250,200 v 0 c -29.219,10.635 -54.796,15.953 -76.717,15.954 v 0 c -53.85,0.002 -85.674,-32.082 -95.482,-96.252"
             style="fill:url(#linearGradient9505);stroke:none"
             id="path9507" /></g></g></g></g><g
     id="g9509"
     transform="matrix(-0.35277776,0,0,-0.35277778,96.332002,133.54121)"><g
       id="g9511"
       clip-path="url(#clipPath9515)"><g
         id="g9517"><g
           id="g9519"><path
             d="M 71.458,135.016 C 95.675,216.62 155.189,238.281 250,200 v 0 c -32.973,15.376 -61.616,23.065 -85.905,23.067 v 0 C 116.63,223.071 85.758,193.721 71.458,135.016"
             style="fill:url(#linearGradient9525);stroke:none"
             id="path9527" /></g></g></g></g><g
     id="g9529"
     transform="matrix(-0.35277776,0,0,-0.35277778,96.332002,133.54121)"><g
       id="g9531"
       clip-path="url(#clipPath9535)"><g
         id="g9537"><g
           id="g9539"><path
             d="M 66.474,150.824 C 97.711,230.007 158.886,246.399 250,200 v 0 c -35.661,20.589 -66.642,30.884 -92.937,30.885 v 0 C 114.724,230.887 84.53,204.2 66.474,150.824"
             style="fill:url(#linearGradient9545);stroke:none"
             id="path9547" /></g></g></g></g><g
     id="g9549"
     transform="matrix(-0.35277776,0,0,-0.35277778,96.332002,133.54121)"><g
       id="g9551"
       clip-path="url(#clipPath9555)"><g
         id="g9557"><g
           id="g9559"><path
             d="M 62.887,167.007 C 100.906,243.166 163.277,254.165 250,200 v 0 c -37.352,26.154 -70.094,39.233 -98.206,39.236 v 0 C 113.645,239.24 84.016,215.164 62.887,167.007"
             style="fill:url(#linearGradient9565);stroke:none"
             id="path9567" /></g></g></g></g><g
     id="g9569"
     transform="matrix(-0.35277776,0,0,-0.35277778,96.332002,133.54121)"><g
       id="g9571"
       clip-path="url(#clipPath9575)"><g
         id="g9577"><g
           id="g9579"><path
             d="M 60.723,183.441 C 105.235,255.996 168.328,261.516 250,200 v 0 c -38.117,31.984 -72.121,47.978 -101.99,47.982 v 0 c -34.649,0.004 -63.738,-21.509 -87.287,-64.541"
             style="fill:url(#linearGradient9585);stroke:none"
             id="path9587" /></g></g></g></g><g
     id="g9589"
     transform="matrix(-0.35277776,0,0,-0.35277778,96.332002,133.54121)"><g
       id="g9591"
       clip-path="url(#clipPath9595)"><g
         id="g9597"><g
           id="g9599"><path
             d="m 60,200 c 50.667,68.401 114,68.401 190,0 v 0 c -38,38 -72.833,57 -104.5,57 v 0 C 113.833,257 85.333,238 60,200"
             style="fill:url(#linearGradient9605);stroke:none"
             id="path9607" /></g></g></g></g><g
     id="g9609"
     transform="matrix(-0.35277776,0,0,-0.35277778,96.332002,133.54121)"><g
       id="g9611"
       clip-path="url(#clipPath9615)"><g
         id="g9617"><g
           id="g9619"><path
             d="M 60.723,216.56 C 117.158,280.283 180.25,274.764 250,200 v 0 c -37.023,44.123 -72.332,66.185 -105.911,66.189 v 0 C 115.006,266.191 87.223,249.648 60.723,216.56"
             style="fill:url(#linearGradient9625);stroke:none"
             id="path9627" /></g></g></g></g><g
     id="g9629"
     transform="matrix(-0.35277776,0,0,-0.35277778,96.332002,133.54121)"><g
       id="g9631"
       clip-path="url(#clipPath9635)"><g
         id="g9637"><g
           id="g9639"><path
             d="M 62.887,232.993 C 124.661,291.556 187.033,280.559 250,200 v 0 c -35.223,50.303 -70.685,75.456 -106.38,75.458 v 0 c -26.78,10e-4 -53.688,-14.154 -80.733,-42.465"
             style="fill:url(#linearGradient9645);stroke:none"
             id="path9647" /></g></g></g></g><g
     id="g9649"
     transform="matrix(-0.35277776,0,0,-0.35277778,96.332002,133.54121)"><g
       id="g9651"
       clip-path="url(#clipPath9655)"><g
         id="g9657"><g
           id="g9659"><path
             d="M 66.474,249.176 C 133.118,302.132 194.293,285.739 250,200 v 0 c -32.61,56.483 -67.97,84.727 -106.055,84.732 v 0 c -24.678,0.004 -50.494,-11.848 -77.471,-35.556"
             style="fill:url(#linearGradient9665);stroke:none"
             id="path9667" /></g></g></g></g><g
     id="g9669"
     transform="matrix(-0.35277776,0,0,-0.35277778,96.332002,133.54121)"><g
       id="g9671"
       clip-path="url(#clipPath9675)"><g
         id="g9677"><g
           id="g9679"><path
             d="M 71.458,264.983 C 142.464,311.93 201.977,290.269 250,200 v 0 c -29.205,62.629 -64.241,93.946 -105.095,93.949 v 0 c -22.688,0.002 -47.166,-9.653 -73.447,-28.966"
             style="fill:url(#linearGradient9685);stroke:none"
             id="path9687" /></g></g></g></g><g
     id="g9689"
     transform="matrix(-0.35277776,0,0,-0.35277778,96.332002,133.54121)"><g
       id="g9691"
       clip-path="url(#clipPath9695)"><g
         id="g9697"><g
           id="g9699"><path
             d="M 77.801,280.298 C 152.628,320.876 210.028,294.11 250,200 v 0 c -25.006,68.702 -59.572,103.057 -103.678,103.061 v 0 c -20.733,0.003 -43.567,-7.585 -68.521,-22.763"
             style="fill:url(#linearGradient9705);stroke:none"
             id="path9707" /></g></g></g></g><g
     id="g9709"
     transform="matrix(-0.35277776,0,0,-0.35277778,96.332002,133.54121)"><g
       id="g9711"
       clip-path="url(#clipPath9715)"><g
         id="g9717"><g
           id="g9719"><path
             d="m 85.455,295 c 78.079,33.902 132.926,2.237 164.545,-95 v 0 c -20.013,74.689 -54.02,112.034 -102.013,112.037 v 0 C 129.269,312.038 108.429,306.359 85.455,295"
             style="fill:url(#linearGradient9725);stroke:none"
             id="path9727" /></g></g></g></g><g
     id="g9729"
     transform="matrix(-0.35277776,0,0,-0.35277778,96.332002,133.54121)"><g
       id="g9731"
       clip-path="url(#clipPath9735)"><g
         id="g9737"><g
           id="g9739"><path
             d="M 94.361,308.98 C 175.098,335.948 226.977,299.622 250,200 v 0 c -14.208,80.575 -47.67,120.863 -100.372,120.867 v 0 c -16.531,10e-4 -34.949,-3.961 -55.267,-11.887"
             style="fill:url(#linearGradient9745);stroke:none"
             id="path9747" /></g></g></g></g><g
     id="g9749"
     transform="matrix(-0.35277776,0,0,-0.35277778,96.332002,133.54121)"><g
       id="g9751"
       clip-path="url(#clipPath9755)"><g
         id="g9757"><g
           id="g9759"><path
             d="M 104.451,322.13 C 187.231,341.959 235.747,301.249 250,200 v 0 c -7.557,86.374 -40.597,129.564 -99.107,129.566 v 0 c -14.02,0.001 -29.496,-2.478 -46.442,-7.436"
             style="fill:url(#linearGradient9765);stroke:none"
             id="path9767" /></g></g></g></g><g
     id="g9769"
     transform="matrix(-0.35277776,0,0,-0.35277778,96.332002,133.54121)"><g
       id="g9771"
       clip-path="url(#clipPath9775)"><g
         id="g9777"><g
           id="g9779"><path
             d="M 115.65,334.351 C 199.843,346.89 244.626,302.107 250,200 v 0 c 0,92.123 -32.906,138.186 -98.707,138.189 v 0 c -10.969,10e-4 -22.845,-1.279 -35.643,-3.838"
             style="fill:url(#linearGradient9785);stroke:none"
             id="path9787" /></g></g></g></g><g
     id="g9789"
     transform="matrix(-0.35277776,0,0,-0.35277778,96.332002,133.54121)"><g
       id="g9791"
       clip-path="url(#clipPath9795)"><g
         id="g9797"><g
           id="g9799"><path
             d="M 127.87,345.549 C 212.836,350.702 253.545,302.187 250,200 v 0 c 8.564,97.889 -24.736,146.836 -99.886,146.84 v 0 c -7.049,0 -14.458,-0.43 -22.244,-1.291"
             style="fill:url(#linearGradient9805);stroke:none"
             id="path9807" /></g></g></g></g><g
     id="g9809"
     transform="matrix(-0.35277776,0,0,-0.35277778,96.332002,133.54121)"><g
       id="g9811"
       clip-path="url(#clipPath9815)"><g
         id="g9817"><g
           id="g9819"><path
             d="M 141.02,355.639 C 226.111,353.368 262.438,301.488 250,200 v 0 c 18.302,103.8 -16.278,155.699 -103.742,155.699 v 0 c -1.726,0 -3.471,-0.02 -5.238,-0.06"
             style="fill:url(#linearGradient9825);stroke:none"
             id="path9827" /></g></g></g></g><g
     id="g9829"
     transform="matrix(-0.35277776,0,0,-0.35277778,96.332002,133.54121)"><g
       id="g9831"
       clip-path="url(#clipPath9835)"><g
         id="g9837"><g
           id="g9839"><path
             d="m 250,200 c 27.818,103.818 -3.848,158.666 -95,164.545 v 0 C 239.569,354.866 271.237,300.018 250,200"
             style="fill:url(#linearGradient9845);stroke:none"
             id="path9847" /></g></g></g></g><g
     id="g9849"
     transform="matrix(-0.35277776,0,0,-0.35277778,96.332002,133.54121)"><g
       id="g9851"
       clip-path="url(#clipPath9855)"><g
         id="g9857"><g
           id="g9859"><path
             d="m 250,200 c 36.76,100.998 9.995,158.397 -80.298,172.199 v 0 C 253.106,355.186 279.873,297.786 250,200"
             style="fill:url(#linearGradient9865);stroke:none"
             id="path9867" /></g></g></g></g><g
     id="g9869"
     transform="matrix(-0.35277776,0,0,-0.35277778,96.332002,133.54121)"><g
       id="g9871"
       clip-path="url(#clipPath9875)"><g
         id="g9877"><g
           id="g9879"><path
             d="m 250,200 c 45.423,97.41 23.762,156.924 -64.984,178.542 v 0 C 266.62,354.325 288.281,294.81 250,200"
             style="fill:url(#linearGradient9885);stroke:none"
             id="path9887" /></g></g></g></g></svg>
